<svg width="280" height="58" viewBox="0 0 280 58" fill="none" xmlns="http://www.w3.org/2000/svg">
<path d="M11.6108 38.8195H9.33414L10.4725 17.1937L11.6108 38.8195ZM12.5973 57.3887H21.9314L16.847 0.534916H4.70502L0 57.3887H8.27172L8.80293 47.1489H12.0661L12.5973 57.3887Z" fill="#E1FD2C"/>
<path d="M35.603 58C42.5088 58 45.696 53.5678 45.696 48.6008V0.534916H35.9066V47.4545C35.9066 48.448 35.5271 48.9065 34.8441 48.9065C34.1612 48.9065 33.8576 48.448 33.8576 47.4545V0.534916H23.9923V48.6008C23.9923 53.6443 26.7242 58 34.0853 58H35.603Z" fill="#E1FD2C"/>
<path d="M52.8798 57.3887H62.3658V9.24637H66.6913V0.534916H48.5543V9.24637H52.8798V57.3887Z" fill="#E1FD2C"/>
<path d="M91.1288 11.2332C91.1288 4.43215 88.0933 0 80.884 0H79.3663C72.157 0 69.1215 4.2029 69.1215 11.2332V46.9196C69.1215 53.9499 72.6882 57.9236 79.3663 57.9236H80.9599C87.2586 57.9236 91.1288 54.0263 91.1288 46.9196V11.2332ZM81.2635 47.7602C81.2635 48.7536 80.884 49.2885 80.1252 49.2885C79.4422 49.2885 79.0628 48.7536 79.0628 47.7602V10.1634C79.0628 9.01713 79.4422 8.48221 80.1252 8.48221C80.884 8.48221 81.2635 9.01713 81.2635 10.1634V47.7602Z" fill="#E1FD2C"/>
<path d="M94.0558 30.108V38.8195H103.618V30.108H94.0558Z" fill="#E1FD2C"/>
<path d="M106.543 57.3887H114.436V25.5995L117.319 57.3887H120.734L123.542 25.5995V57.3887H131.586V0.534916H120.886L119.217 28.1212L117.547 0.534916H106.543V57.3887Z" fill="#E1FD2C"/>
<path d="M145.368 38.8195H143.092L144.23 17.1937L145.368 38.8195ZM146.355 57.3887H155.689L150.604 0.534916H138.462L133.757 57.3887H142.029L142.56 47.1489H145.823L146.355 57.3887Z" fill="#E1FD2C"/>
<path d="M165.268 57.9236C168.531 57.9236 170.504 55.8603 171.794 53.7971C172.098 54.4848 172.553 56.5481 172.781 57.3887H179.231V23.9183H168.152V31.3307H170.125V48.2951C170.125 49.4414 169.669 50.0527 168.759 50.0527C167.848 50.0527 167.393 49.4414 167.393 48.2951V9.47563C167.393 8.48221 167.772 8.02372 168.455 8.02372C169.366 8.02372 169.593 8.55863 169.593 9.47563V21.8551H178.852V9.09354C178.852 4.50856 176.651 0 168.986 0H167.696C160.107 0 157.527 4.58498 157.527 9.85771V48.5244C157.527 53.5679 159.956 57.9236 165.04 57.9236H165.268Z" fill="#E1FD2C"/>
<path d="M193.017 38.8195H190.74L191.879 17.1937L193.017 38.8195ZM194.004 57.3887H203.338L198.253 0.534916H186.111L181.406 57.3887H189.678L190.209 47.1489H193.472L194.004 57.3887Z" fill="#E1FD2C"/>
<path d="M205.623 0.534916V9.16996H212.832L205.319 49.4414V57.3887H223.684V48.6772H215.64L223.304 8.48221V0.534916H205.623Z" fill="#E1FD2C"/>
<path d="M236.119 0.534916H226.481V57.3887H236.119V0.534916Z" fill="#E1FD2C"/>
<path d="M239.189 0.534916V57.3887H247.233L247.157 23.307L251.635 57.3887H260.514V0.534916H252.545L252.621 31.3307L248.903 0.534916H239.189Z" fill="#E1FD2C"/>
<path d="M263.532 0.534916V57.3887H280V48.5244H272.942V32.0949H278.71V23.0777H272.942V9.24637H279.772V0.534916H263.532Z" fill="#E1FD2C"/>
</svg>
